<svg width="28" height="28" viewBox="0 0 28 28" fill="none" xmlns="http://www.w3.org/2000/svg">
<rect x="0.5" y="0.5" width="27" height="27" rx="5.5" fill="white"/>
<mask id="mask0_9478_150034" style="mask-type:alpha" maskUnits="userSpaceOnUse" x="0" y="0" width="28" height="28">
<rect width="28" height="28" fill="#D9D9D9"/>
</mask>
<g mask="url(#mask0_9478_150034)">
<path d="M18.372 21.8794C18.5532 21.7175 18.6439 21.5151 18.6439 21.272C18.6439 21.0295 18.5532 20.8199 18.372 20.6434L11.5759 13.9997L18.3947 7.33391C18.5759 7.17205 18.6665 6.96957 18.6665 6.72649C18.6665 6.48399 18.5683 6.27445 18.372 6.09787C18.2059 5.9213 17.9981 5.83301 17.7486 5.83301C17.4997 5.83301 17.2846 5.9213 17.1034 6.09787L9.58236 13.4479C9.49175 13.5214 9.42741 13.6059 9.38935 13.7013C9.3519 13.7972 9.33317 13.8967 9.33317 13.9997C9.33317 14.1027 9.3519 14.2019 9.38935 14.2972C9.42741 14.3931 9.49175 14.4779 9.58236 14.5515L17.1261 21.9015C17.2922 22.0781 17.4961 22.1663 17.7377 22.1663C17.9793 22.1663 18.1908 22.0707 18.372 21.8794Z" fill="#979797"/>
</g>
<rect x="0.5" y="0.5" width="27" height="27" rx="5.5" stroke="#E9E9E9"/>
</svg>
