<svg width="28" height="28" viewBox="0 0 28 28" fill="none" xmlns="http://www.w3.org/2000/svg">
<rect x="0.5" y="0.5" width="27" height="27" rx="5.5" fill="white"/>
<mask id="mask0_9478_150031" style="mask-type:alpha" maskUnits="userSpaceOnUse" x="0" y="0" width="28" height="28">
<rect width="28" height="28" fill="#D9D9D9"/>
</mask>
<g mask="url(#mask0_9478_150031)">
<path d="M9.62799 21.8794C9.44676 21.7175 9.35615 21.5151 9.35615 21.272C9.35615 21.0295 9.44676 20.8199 9.62799 20.6434L16.4241 13.9997L9.60534 7.33391C9.42411 7.17205 9.3335 6.96957 9.3335 6.72649C9.3335 6.48399 9.43166 6.27445 9.62799 6.09787C9.79412 5.9213 10.0019 5.83301 10.2514 5.83301C10.5003 5.83301 10.7154 5.9213 10.8966 6.09787L18.4176 13.4479C18.5083 13.5214 18.5726 13.6059 18.6106 13.7013C18.6481 13.7972 18.6668 13.8967 18.6668 13.9997C18.6668 14.1027 18.6481 14.2019 18.6106 14.2972C18.5726 14.3931 18.5083 14.4779 18.4176 14.5515L10.8739 21.9015C10.7078 22.0781 10.5039 22.1663 10.2623 22.1663C10.0207 22.1663 9.80922 22.0707 9.62799 21.8794Z" fill="#979797"/>
</g>
<rect x="0.5" y="0.5" width="27" height="27" rx="5.5" stroke="#E9E9E9"/>
</svg>
